<?xml version="1.0" standalone="no"?>
<!DOCTYPE svg PUBLIC "-//W3C//DTD SVG 20010904//EN"
 "http://www.w3.org/TR/2001/REC-SVG-20010904/DTD/svg10.dtd">
<svg version="1.0" xmlns="http://www.w3.org/2000/svg"
 width="800.000000pt" height="800.000000pt" viewBox="0 0 800.000000 800.000000"
 preserveAspectRatio="xMidYMid meet">
<metadata>
Created by potrace 1.11, written by Peter Selinger 2001-2013
</metadata>
<g transform="translate(0.000000,800.000000) scale(0.100000,-0.100000)"
fill="#000000" stroke="none">
<path d="M3765 7994 c-602 -47 -1071 -175 -1575 -430 -925 -468 -1629 -1276
-1969 -2259 -394 -1138 -251 -2396 387 -3421 390 -627 950 -1134 1617 -1464
582 -288 1126 -414 1780 -414 290 0 455 14 705 60 997 181 1882 728 2491 1539
427 569 688 1228 775 1960 25 208 25 659 0 870 -78 666 -300 1268 -668 1812
-142 208 -288 384 -482 579 -195 194 -371 340 -579 482 -542 367 -1151 592
-1802 667 -133 15 -572 27 -680 19z m675 -563 c732 -98 1361 -393 1915 -898
245 -224 482 -524 660 -838 386 -680 527 -1490 395 -2275 -163 -968 -734
-1819 -1577 -2353 -146 -93 -479 -256 -638 -312 -414 -149 -760 -209 -1195
-209 -563 0 -1055 115 -1546 362 -346 174 -608 363 -887 640 -504 499 -834
1118 -966 1812 -41 220 -55 375 -55 635 0 253 9 373 45 585 174 1027 801 1917
1714 2435 425 241 907 389 1420 435 157 14 547 4 715 -19z"/>
<path d="M2838 5934 c-101 -118 -184 -219 -186 -223 -1 -4 420 -366 937 -805
l940 -798 -137 -161 c-115 -135 -1408 -1660 -1448 -1707 -11 -13 20 -43 206
-200 120 -102 223 -185 230 -185 16 0 1971 2307 1968 2322 -3 14 -2306 1973
-2319 1973 -4 0 -90 -97 -191 -216z"/>
</g>
</svg>
